<?xml version="1.0" standalone="no"?>
<!DOCTYPE svg PUBLIC "-//W3C//DTD SVG 20010904//EN"
 "http://www.w3.org/TR/2001/REC-SVG-20010904/DTD/svg10.dtd">
<svg version="1.0" xmlns="http://www.w3.org/2000/svg"
 width="700.000000pt" height="700.000000pt" viewBox="0 0 700.000000 700.000000"
 preserveAspectRatio="xMidYMid meet">
<metadata>
Created by potrace 1.11, written by Peter Selinger 2001-2013
</metadata>
<g transform="translate(0.000000,700.000000) scale(0.100000,-0.100000)"
fill="#000000" stroke="none">
<path d="M884 6986 c-379 -60 -697 -324 -822 -686 -61 -176 -57 7 -57 -2810
l0 -2585 23 -88 c63 -251 193 -452 384 -597 123 -94 238 -149 402 -193 l81
-22 2558 -2 c2830 -4 2660 -7 2852 61 295 106 526 337 631 632 69 192 65 14
62 2854 l-3 2565 -27 99 c-103 373 -381 651 -756 754 l-97 27 -2575 2 c-2028
1 -2592 -2 -2656 -11z m1934 -2936 c268 -29 501 -107 680 -228 331 -225 492
-623 427 -1055 -73 -485 -437 -811 -1010 -903 -70 -11 -196 -18 -417 -21
l-318 -5 0 -359 0 -359 -500 0 -500 0 0 1470 0 1470 770 0 c462 0 810 -4 868
-10z m1914 -1901 c95 -20 194 -75 267 -148 109 -109 151 -214 151 -380 0 -155
-51 -282 -155 -386 -113 -113 -248 -161 -427 -153 -255 13 -433 148 -504 383
-26 88 -25 239 4 331 53 171 198 304 379 348 71 17 214 20 285 5z"/>
<path d="M2278 3293 l-98 -4 0 -339 0 -340 221 0 c261 0 329 11 411 68 168
118 169 429 1 545 -21 14 -58 33 -83 42 -51 18 -207 35 -295 33 -33 -1 -104
-4 -157 -5z"/>
</g>
</svg>
